<?xml version="1.0" encoding="UTF-8" standalone="no"?>
<svg
   viewBox="0 0 16 16"
   width="16"
   height="16"
   version="1.1"
   id="svg10"
   sodipodi:docname="logo.svg"
   inkscape:version="1.4.2 (f4327f4, 2025-05-13)"
   inkscape:export-filename="..\Desktop\Clase 1\img\logo-2.svg"
   inkscape:export-xdpi="96"
   inkscape:export-ydpi="96"
   xmlns:inkscape="http://www.inkscape.org/namespaces/inkscape"
   xmlns:sodipodi="http://sodipodi.sourceforge.net/DTD/sodipodi-0.dtd"
   xmlns="http://www.w3.org/2000/svg"
   xmlns:svg="http://www.w3.org/2000/svg">
  <defs
     id="defs10" />
  <sodipodi:namedview
     id="namedview10"
     pagecolor="#ffffff"
     bordercolor="#000000"
     borderopacity="0.25"
     inkscape:showpageshadow="2"
     inkscape:pageopacity="0.0"
     inkscape:pagecheckerboard="0"
     inkscape:deskcolor="#d1d1d1"
     inkscape:zoom="2.8531759"
     inkscape:cx="24.183578"
     inkscape:cy="47.140452"
     inkscape:window-width="1920"
     inkscape:window-height="1009"
     inkscape:window-x="-8"
     inkscape:window-y="-8"
     inkscape:window-maximized="1"
     inkscape:current-layer="logo-vector" />
  <g
     id="logo-vector"
     fill="none"
     stroke="#007ca6"
     stroke-width="9.5"
     stroke-linecap="round"
     stroke-linejoin="round">
    <g
       id="g11"
       transform="translate(-34.044751,-33.975813)">
      <g
         id="g2"
         style="stroke:#008000"
         transform="matrix(0.12555934,0,0,0.12861572,29.488818,29.699412)">
        <path
           d="M 100,38 Q 74,62 81,96"
           id="path1"
           style="stroke:#008000" />
        <path
           d="m 100,38 q 18,8 34,22"
           id="path2"
           style="stroke:#008000" />
      </g>
      <g
         transform="matrix(0.03879996,0.12232082,-0.11941403,0.03974444,50.106159,26.354458)"
         id="g4"
         style="stroke:#008000">
        <path
           d="M 100,38 Q 74,62 81,96"
           id="path3"
           style="stroke:#008000" />
        <path
           d="m 100,38 q 18,8 34,22"
           id="path4"
           style="stroke:#008000" />
      </g>
      <g
         transform="rotate(144,100,100)"
         id="g6"
         style="stroke:#008000">
        <path
           d="m 113.21509,172.62567 q -3.32689,3.09923 -2.48998,7.42609"
           id="path5"
           style="stroke:#008000;stroke-width:1.20723" />
        <path
           d="m 113.21509,172.62567 q 2.26746,0.99432 4.27295,2.75691"
           id="path6"
           style="stroke:#008000;stroke-width:1.20723" />
      </g>
      <g
         transform="matrix(-0.10157964,-0.07559841,0.07380193,-0.10405231,44.822524,60.526056)"
         id="g8"
         style="stroke:#008000">
        <path
           d="M 100,38 Q 74,62 81,96"
           id="path7"
           style="stroke:#008000" />
        <path
           d="m 100,38 q 18,8 34,22"
           id="path8"
           style="stroke:#008000" />
      </g>
      <g
         transform="matrix(0.03879996,-0.12232082,0.11941403,0.03974444,26.223352,50.818622)"
         id="g10"
         style="stroke:#008000">
        <path
           d="M 100,38 Q 74,62 81,96"
           id="path9"
           style="stroke:#008000" />
        <path
           d="m 100,38 q 18,8 34,22"
           id="path10"
           style="stroke:#008000" />
      </g>
    </g>
  </g>
</svg>
